<?xml version="1.0" encoding="utf-8"?>
<!-- Generator: Adobe Illustrator 16.0.3, SVG Export Plug-In . SVG Version: 6.00 Build 0)  -->
<!DOCTYPE svg PUBLIC "-//W3C//DTD SVG 1.1//EN" "http://www.w3.org/Graphics/SVG/1.1/DTD/svg11.dtd">
<svg version="1.1" id="Calque_3" xmlns="http://www.w3.org/2000/svg" xmlns:xlink="http://www.w3.org/1999/xlink" x="0px" y="0px"
	 width="450px" height="240px" viewBox="0 0 450 240" enable-background="new 0 0 450 240" xml:space="preserve">
<g>
	<title>Layer 1</title>
	<g id="svg_1_2_">
		<path fill="#010101" d="M289.926,127.642c0.336,36.002,31.58,47.981,31.928,48.136c-0.264,0.845-4.992,17.072-16.463,33.834
			c-9.916,14.493-20.207,28.933-36.418,29.232c-15.93,0.293-21.051-9.446-39.262-9.446c-18.207,0-23.896,9.146-38.977,9.739
			c-15.648,0.593-27.564-15.673-37.561-30.112c-20.431-29.534-36.043-83.459-15.079-119.86
			c10.413-18.077,29.024-29.524,49.226-29.817c15.365-0.293,29.869,10.338,39.262,10.338c9.389,0,27.014-12.784,45.543-10.907
			c7.756,0.323,29.527,3.133,43.512,23.598C314.51,83.075,289.654,97.543,289.926,127.642 M259.988,39.238
			c8.307-10.056,13.898-24.054,12.375-37.983c-11.977,0.481-26.455,7.979-35.045,18.03c-7.697,8.9-14.439,23.146-12.619,36.799
			C238.045,57.116,251.68,49.3,259.988,39.238"/>
	</g>
</g>
</svg>
