<?xml version="1.0" ?><!DOCTYPE svg  PUBLIC '-//W3C//DTD SVG 1.1//EN'  'http://www.w3.org/Graphics/SVG/1.1/DTD/svg11.dtd'><svg enable-background="new 0 0 150 150" height="150px" id="Layer_1" version="1.1" viewBox="0 0 150 150" width="150px" xml:space="preserve" xmlns="http://www.w3.org/2000/svg" xmlns:xlink="http://www.w3.org/1999/xlink"><g><circle cx="455.003" cy="-875.216" fill="#00B5EC" opacity="0.1" r="75"/><path d="M455.003-950.216v150c41.42,0,75-33.579,75-75.001   C530.003-916.637,496.423-950.216,455.003-950.216z" fill="#00B5EC" opacity="0.1"/><circle cx="455.003" cy="-875.216" fill="#00B5EC" r="65.487"/><path d="M455.003-940.704v130.975c36.168,0,65.488-29.319,65.488-65.488   C520.491-911.384,491.171-940.704,455.003-940.704z" fill="#00A8DB"/><g><path d="M389.589-878.143c-0.043,0.971-0.074,1.945-0.074,2.926c0,36.169,29.32,65.488,65.488,65.488v-5.852    C419.815-815.581,391.12-843.334,389.589-878.143z" fill="#00A8DB"/><path d="M520.417-878.143c-1.533,34.809-30.227,62.562-65.414,62.562v5.852c36.168,0,65.488-29.319,65.488-65.488    C520.491-876.198,520.46-877.172,520.417-878.143z" fill="#009DCC"/></g></g><g><g><polygon fill="#FFFFFF" points="487.891,-876.728 487.891,-911.412 448.053,-905.6 448.053,-876.728   "/><polygon fill="#FFFFFF" points="445.248,-905.191 416.318,-900.97 416.318,-876.728 445.248,-876.728   "/><polygon fill="#FFFFFF" points="416.318,-873.922 416.318,-849.374 445.248,-845.106 445.248,-873.922   "/><polygon fill="#FFFFFF" points="448.053,-844.69 487.891,-838.813 487.891,-873.922 448.053,-873.922   "/></g></g><g><circle cx="75.003" cy="75" fill="#00B5EC" opacity="0.1" r="75"/><path d="M75.003,0v150c41.42,0,75-33.578,75-75C150.003,33.58,116.423,0,75.003,0z" fill="#00B5EC" opacity="0.1"/><circle cx="75.003" cy="75.001" fill="#00B5EC" r="65.488"/><path d="M75.003,9.513v130.975c36.168,0,65.488-29.32,65.488-65.489C140.491,38.833,111.171,9.513,75.003,9.513z" fill="#00A8DB"/><g><path d="M9.589,72.074C9.546,73.044,9.515,74.019,9.515,75c0,36.168,29.32,65.489,65.488,65.489v-5.852    C39.815,134.637,11.12,106.883,9.589,72.074z" fill="#00A8DB"/><path d="M140.417,72.074c-1.533,34.809-30.227,62.563-65.414,62.563v5.852c36.168,0,65.488-29.32,65.488-65.489    C140.491,74.019,140.46,73.044,140.417,72.074z" fill="#009DCC"/></g></g><g><g><polygon fill="#FFFFFF" points="107.891,73.489 107.891,38.805 68.053,44.617 68.053,73.489   "/><polygon fill="#FFFFFF" points="65.248,45.026 36.318,49.247 36.318,73.489 65.248,73.489   "/><polygon fill="#FFFFFF" points="36.318,76.295 36.318,100.844 65.248,105.111 65.248,76.295   "/><polygon fill="#FFFFFF" points="68.053,105.527 107.891,111.404 107.891,76.295 68.053,76.295   "/></g></g></svg>