<?xml version="1.0" encoding="utf-8"?>
<svg xmlns="http://www.w3.org/2000/svg" xmlns:boxy="http://www.boxy-svg.com/boxyNS" version="1.1" id="Layer_1" width="850.3939819335938" height="850.3939819335938" style="overflow:visible;enable-background:new 0 0 850.394 850.394;" xml:space="preserve" xmlns:xml="http://www.w3.org/XML/1998/namespace" boxy:zoom="58" boxy:scrollX="-364" boxy:scrollY="-30" viewBox="0 0 850.39 850.39">
  <defs/>
  <polygon style="fill: #c8c8c8;" points="534.26,184.98 534.26,118.82 534.26,76.58 644.13,55.03 644.13,202.7   " transform="matrix(1 0 0 1 0 0)"/>
  <path style="fill: #c8c8c8;" d="M534.26,184.98c-40.76,8.86-35.979,61.05-35.979,61.05c-1.66-1.53-2.851-2.01-2.851-2.01    l-85.17,0.05c0,0-2.48,0.99-5.25,4.71c0,0-0.71-59.07-38.52-86.25c-37.8-27.17-176.32,0-176.32,0s75.31-63.79,183.41-85.95    c108.1-22.15,160.68,0,160.68,0v42.24V184.98z" transform="matrix(1 0 0 1 0 0)"/>
  <path style="fill: #c8c8c8;" d="M520.87,722.52c8.939,61.04-22.46,76.021-68.38,76.021c-46.66,0-76.68-14.41-67.67-75.96    c11.13-76.04,12.72-412.61,12.72-443.02c0-16.99,3.97-26.07,7.47-30.78c2.77-3.72,5.25-4.71,5.25-4.71l85.17-0.05    c0,0,1.19,0.48,2.851,2.01c3.75,3.47,9.87,12.38,9.87,33.48C508.15,309.92,509.74,646.49,520.87,722.52z" transform="matrix(1 0 0 1 0 0)"/>
  <path style="fill: #961e1e; stroke: #000000; stroke-width: 21.2654px;" d="M405.01,248.78c-3.5,4.71-7.47,13.79-7.47,30.78    c0,30.41-1.59,366.98-12.72,443.02c-9.01,61.55,21.01,75.96,67.67,75.96c45.92,0,77.319-14.98,68.38-76.021    c-11.13-76.029-12.72-412.6-12.72-443.01c0-21.1-6.12-30.01-9.87-33.48c-1.66-1.53-2.851-2.01-2.851-2.01l-85.17,0.05    C410.26,244.07,407.78,245.06,405.01,248.78z" transform="matrix(1 0 0 1 0 0)"/>
  <path style="fill: #c8c8c8; stroke: #000000; stroke-width: 21.2654px;" d="M405.01,248.78c0,0-0.71-59.07-38.52-86.25    c-37.8-27.17-176.32,0-176.32,0s75.31-63.79,183.41-85.95c108.1-22.15,160.68,0,160.68,0" transform="matrix(1 0 0 1 0 0)"/>
  <path style="fill: #c8c8c8; stroke: #000000; stroke-width: 21.2654px;" d="M498.28,246.03c0,0-4.78-52.19,35.979-61.05" transform="matrix(1 0 0 1 0 0)"/>
  <polygon style="fill: #c8c8c8; stroke: #000000; stroke-width: 21.2654px;" points="534.26,76.58 644.13,55.03 644.13,202.7 534.26,184.98     534.26,118.82   " transform="matrix(1 0 0 1 0 0)"/>
  <rect style="fill:none;" width="850.394" height="850.394"/>
</svg>