<svg xmlns="http://www.w3.org/2000/svg" width="943.9" height="1000" viewBox="0 0 943.9 1000"><path fill="#D4D8B8" d="M876.5 636.7h-392l254.8-254.8-12.6-12.6-260.9 260.8V60.3H448v272.9L189.6 74.8 177 87.4l252.2 252.2H67.4v17.8h367.7L177.3 615.2l12.6 12.6L448 369.7v570h17.8V664.1l257.9 257.8 12.6-12.6-254.8-254.8h395"/><path fill="#6667FF" d="M591.8 295.7H472.4c-2.4 0-5.7.5-9.1 1.2-2 .3-3.9.8-5.9 1.4-2.1.6-4.1 1.1-5.6 1.6-20.5 6.4-31.2 23.4-32.2 45.4-.1 1.2-.1 2.4-.1 3.7v250.9h-66.8c-136.2 0-247.1-110.8-247.1-247.1s110.9-247.1 247.1-247.1h119.6c29.2 0 52.9-23.7 52.9-52.8 0-29.2-23.7-52.9-52.8-52.9H352.8C158.3 0 0 158.3 0 352.8s158.3 352.8 352.8 352.8h119.6c29.1 0 52.8-23.7 52.8-52.9V401.3h66.5c131.7 0 239.7 103.8 246.3 233.9.2 4.2.3 8.4.3 12.7 0 8.5-.4 16.9-1.3 25.2-12.7 124.2-117.9 221.4-245.3 221.4H472.4c-29.1 0-52.8 23.7-52.8 52.7 0 23.6 15.6 43.7 37.1 50.4 5 1.5 10.2 2.4 15.7 2.4h119.4c194.2 0 352.1-158 352.1-352.1 0-194.2-157.9-352.2-352.1-352.2z"/></svg>
