<?xml version="1.0" encoding="utf-8"?>
<!-- Generator: Adobe Illustrator 16.0.4, SVG Export Plug-In . SVG Version: 6.00 Build 0)  -->
<!DOCTYPE svg PUBLIC "-//W3C//DTD SVG 1.1//EN" "http://www.w3.org/Graphics/SVG/1.1/DTD/svg11.dtd">
<svg version="1.1" id="Layer_1" xmlns="http://www.w3.org/2000/svg" xmlns:xlink="http://www.w3.org/1999/xlink" x="0px" y="0px"
	 width="600px" height="600px" viewBox="0 0 600 600" enable-background="new 0 0 600 600" xml:space="preserve">
<g>
	<path fill="#58595B" d="M288.35,314.877c-43.778,0-79.259-26.465-79.259-59.105c0-32.643,35.481-59.105,79.259-59.105v49.16
		h-15.325v-32.598c0,0-46.197,5.137-47.81,42.98c0,0-3.139,33.145,47.907,42.553v-27.637h-17.01v-14.916h32.212L288.35,314.877z"/>
	<path fill="#58595B" d="M305.513,314.672c43.781,0,79.26-26.463,79.26-59.105c0-32.641-35.479-59.105-79.26-59.105v48.979h15.416
		l-0.138-33.367c0,0,47.868,5.422,49.652,42.605c0,0,0.816,33.32-49.787,43.178l0.135-41.932l-15.278,0.025V314.672z"/>
	
	
</g>
</svg>
