<?xml version="1.0" encoding="utf-8"?>
<!-- Generator: Adobe Illustrator 16.0.0, SVG Export Plug-In . SVG Version: 6.00 Build 0)  -->
<!DOCTYPE svg PUBLIC "-//W3C//DTD SVG 1.1//EN" "http://www.w3.org/Graphics/SVG/1.1/DTD/svg11.dtd">
<svg version="1.1" id="LinkedIn_w_x2F__circle" xmlns="http://www.w3.org/2000/svg" xmlns:xlink="http://www.w3.org/1999/xlink"
	 x="0px" y="0px" width="1417.32px" height="1417.32px" viewBox="0 0 1417.32 1417.32" enable-background="new 0 0 1417.32 1417.32"
	 xml:space="preserve">
<path fill="#35495D" d="M708.66,28.346c-375.731,0-680.313,304.583-680.313,680.314s304.582,680.313,680.313,680.313
	s680.313-304.582,680.313-680.313S1084.392,28.346,708.66,28.346z M542.125,990.636H404.361V547.298h137.764V990.636z
	 M472.393,492.873c-43.512,0-71.646-30.827-71.646-68.953c0-38.905,28.984-68.811,73.417-68.811
	c44.434,0,71.646,29.905,72.496,68.811C546.66,462.046,518.598,492.873,472.393,492.873z M1045.273,990.636H907.51V744.943
	c0-57.189-19.984-96.023-69.803-96.023c-38.055,0-60.661,26.291-70.653,51.59c-3.685,9-4.606,21.756-4.606,34.441v255.613H624.613
	V688.676c0-55.347-1.771-101.622-3.614-141.448h119.692l6.308,61.582h2.764c18.142-28.913,62.574-71.574,136.913-71.574
	c90.638,0,158.598,60.731,158.598,191.267V990.636z"/>
</svg>
